<?xml version="1.0" encoding="utf-8"?>
<!-- Generator: Adobe Illustrator 27.7.0, SVG Export Plug-In . SVG Version: 6.00 Build 0)  -->
<svg version="1.1" id="Layer_1" xmlns="http://www.w3.org/2000/svg" xmlns:xlink="http://www.w3.org/1999/xlink" x="0px" y="0px"
	 width="48px" height="48px" viewBox="0 0 48 48" style="enable-background:new 0 0 48 48;" xml:space="preserve">
<g>
	<path d="M35.26,47.5H12.74C5.99,47.5,0.5,42.01,0.5,35.26V12.74C0.5,5.99,5.99,0.5,12.74,0.5h22.52c6.75,0,12.24,5.49,12.24,12.24
		v22.52C47.5,42.01,42.01,47.5,35.26,47.5z M12.74,4.63c-4.47,0-8.11,3.64-8.11,8.11v22.52c0,4.47,3.64,8.11,8.11,8.11h22.52
		c4.47,0,8.11-3.64,8.11-8.11V12.74c0-4.47-3.64-8.11-8.11-8.11H12.74z"/>
	<g>
		<path d="M35.6,37.13c-0.04-0.24-0.09-0.5-0.16-0.78c-0.1-0.38-0.2-0.77-0.33-1.15c-0.12-0.38-0.23-0.74-0.35-1.08
			c-0.11-0.33-0.21-0.6-0.29-0.8l-8.8-22.46h-2.86L14.78,32.9c-0.22,0.62-0.45,1.21-0.68,1.78c-0.22,0.57-0.49,1.07-0.78,1.5
			c-0.26,0.39-0.57,0.7-0.91,0.95h4.37c0.08-0.21,0.17-0.44,0.28-0.68c0.12-0.31,0.25-0.62,0.38-0.93c0.12-0.32,0.24-0.61,0.34-0.9
			c0.1-0.28,0.19-0.52,0.25-0.7l0.66-1.94l8.96-0.16l0.82,2.26c0.13,0.39,0.24,0.76,0.32,1.1c0.08,0.34,0.12,0.66,0.12,0.94
			c0,0.41-0.1,0.75-0.3,1.01H35.6z M19.73,28.92l1.85-5.35c0.44-1.3,0.78-2.42,1.01-3.34c0.22-0.92,0.39-1.62,0.5-2.09h0.04
			c0.13,0.77,0.34,1.64,0.63,2.63c0.28,0.99,0.6,1.98,0.97,2.99l1.87,5.17H19.73z"/>
	</g>
</g>
</svg>
